<svg width="30" height="32" viewBox="0 0 30 32" fill="none" xmlns="http://www.w3.org/2000/svg">
<rect x="22.5099" y="19.7778" width="7.21523" height="1.99704" rx="0.998518" transform="rotate(90 22.5099 19.7778)" fill="black"/>
<path d="M29.6868 26.5763C29.6868 29.4499 27.3573 31.7794 24.4837 31.7794V31.7794C22.2907 31.7794 20.5129 30.0016 20.5129 27.8086L20.5129 25.85L29.6868 25.85L29.6868 26.5763Z" fill="black"/>
<mask id="path-3-outside-1_84_207" maskUnits="userSpaceOnUse" x="24.3989" y="24" width="4" height="5" fill="black">
<rect fill="white" x="24.3989" y="24" width="4" height="5"/>
<path d="M26.4004 24C26.9519 24 27.3989 24.4471 27.3989 24.9985L27.3989 26.1447C27.3989 26.6962 26.9519 27.1433 26.4004 27.1433V27.1433C25.8489 27.1433 25.4019 26.6962 25.4019 26.1448L25.4019 24.9985C25.4019 24.4471 25.8489 24 26.4004 24V24Z"/>
</mask>
<path d="M26.4004 24C26.9519 24 27.3989 24.4471 27.3989 24.9985L27.3989 26.1447C27.3989 26.6962 26.9519 27.1433 26.4004 27.1433V27.1433C25.8489 27.1433 25.4019 26.6962 25.4019 26.1448L25.4019 24.9985C25.4019 24.4471 25.8489 24 26.4004 24V24Z" fill="black"/>
<path d="M26.4004 24C27.0899 24 27.6489 24.559 27.6489 25.2485L27.6489 26.8948C27.6489 27.5843 27.0899 28.1433 26.4004 28.1433L26.4004 26.1433C26.8138 26.1433 27.1489 26.1433 27.1489 26.1433L27.1489 24.9985C27.1489 24.4471 26.8138 24 26.4004 24ZM26.4004 28.1433C25.5728 28.1433 24.9019 27.4724 24.9019 26.6448L24.9019 25.4985C24.9019 24.6709 25.5728 24 26.4004 24C26.1251 24 25.9019 24.4471 25.9019 24.9985L25.9019 26.1433C25.9019 26.1433 26.1251 26.1433 26.4004 26.1433L26.4004 28.1433ZM25.4019 24L27.3989 24L25.4019 24ZM27.6489 26.8948C27.6489 27.5843 27.0899 28.1433 26.4004 28.1433L26.4004 28.1433C25.5728 28.1433 24.9019 27.4724 24.9019 26.6448L25.9019 26.1433C25.9019 26.1433 26.1251 26.1433 26.4004 26.1433L26.4004 26.1433C26.8138 26.1433 27.1489 26.1433 27.1489 26.1433L27.6489 26.8948Z" fill="white" mask="url(#path-3-outside-1_84_207)"/>
<mask id="path-5-outside-2_84_207" maskUnits="userSpaceOnUse" x="21.7644" y="24" width="4" height="5" fill="black">
<rect fill="white" x="21.7644" y="24" width="4" height="5"/>
<path d="M23.7659 24C24.3174 24 24.7644 24.4471 24.7644 24.9985L24.7644 26.1447C24.7644 26.6962 24.3174 27.1433 23.7659 27.1433V27.1433C23.2144 27.1433 22.7674 26.6962 22.7674 26.1448L22.7674 24.9985C22.7674 24.4471 23.2144 24 23.7659 24V24Z"/>
</mask>
<path d="M23.7659 24C24.3174 24 24.7644 24.4471 24.7644 24.9985L24.7644 26.1447C24.7644 26.6962 24.3174 27.1433 23.7659 27.1433V27.1433C23.2144 27.1433 22.7674 26.6962 22.7674 26.1448L22.7674 24.9985C22.7674 24.4471 23.2144 24 23.7659 24V24Z" fill="black"/>
<path d="M23.7659 24C24.5935 24 25.2644 24.6709 25.2644 25.4985L25.2644 26.6448C25.2644 27.4724 24.5935 28.1433 23.7659 28.1433L23.7659 26.1433C24.0412 26.1433 24.2644 26.1433 24.2644 26.1433L24.2644 24.9985C24.2644 24.4471 24.0412 24 23.7659 24ZM23.7659 28.1433C23.0763 28.1433 22.5174 27.5843 22.5174 26.8948L22.5174 25.2485C22.5174 24.559 23.0763 24 23.7659 24C23.3525 24 23.0174 24.4471 23.0174 24.9985L23.0174 26.1433C23.0174 26.1433 23.3525 26.1433 23.7659 26.1433L23.7659 28.1433ZM22.7674 24L24.7644 24L22.7674 24ZM25.2644 26.6448C25.2644 27.4724 24.5935 28.1433 23.7659 28.1433L23.7659 28.1433C23.0763 28.1433 22.5174 27.5843 22.5174 26.8948L23.0174 26.1433C23.0174 26.1433 23.3525 26.1433 23.7659 26.1433L23.7659 26.1433C24.0412 26.1433 24.2644 26.1433 24.2644 26.1433L25.2644 26.6448Z" fill="white" mask="url(#path-5-outside-2_84_207)"/>
<rect width="6.9037" height="2.2307" rx="1.11535" transform="matrix(0.793161 0.609012 -0.505571 0.862785 18.1571 25.5811)" fill="black"/>
<rect x="29.6868" y="21.4484" width="5.97922" height="2.03582" rx="1.01791" transform="rotate(90 29.6868 21.4484)" fill="black"/>
<g clip-path="url(#clip0_84_207)">
<path d="M11.6069 19.4444C13.3944 19.4444 14.8434 15.0917 14.8434 9.72222C14.8434 4.35279 13.3944 0 11.6069 0C9.8194 0 8.37036 4.35279 8.37036 9.72222C8.37036 15.0917 9.8194 19.4444 11.6069 19.4444Z" fill="black"/>
<path d="M4.68733 19.4444C6.47481 19.4444 7.92386 15.0917 7.92386 9.72222C7.92386 4.35279 6.47481 0 4.68733 0C2.89985 0 1.45081 4.35279 1.45081 9.72222C1.45081 15.0917 2.89985 19.4444 4.68733 19.4444Z" fill="black"/>
<path d="M8.42617 31.7222C12.9257 31.7222 16.5733 28.0908 16.5733 23.6111C16.5733 19.1315 12.9257 15.5 8.42617 15.5C3.92664 15.5 0.279053 19.1315 0.279053 23.6111C0.279053 28.0908 3.92664 31.7222 8.42617 31.7222Z" fill="black"/>
</g>
<rect x="7.75" y="26" width="1.5" height="2" rx="0.75" fill="white"/>
<line x1="8.5" y1="24.5" x2="8.5" y2="26.5" stroke="white" stroke-linecap="round"/>
<path d="M10.1562 23.5555V23.5555C9.75057 23.8928 9.3205 24.1999 8.86946 24.4742L8.61398 24.6296" stroke="white" stroke-linecap="round"/>
<path d="M6.95856 23.5555V23.5555C7.36417 23.8928 7.79425 24.1999 8.24529 24.4742L8.50076 24.6296" stroke="white" stroke-linecap="round"/>
<path d="M6.91123 27.573L6.95959 27.5009C7.05219 27.3627 7.16769 27.2413 7.30117 27.1417V27.1417C7.41711 27.0552 7.54526 26.9863 7.68148 26.937L8.49923 26.6416" stroke="white" stroke-linecap="round"/>
<path d="M10.1936 27.5776L10.1544 27.5274C10.0326 27.3716 9.88641 27.2364 9.72137 27.127V27.127C9.60546 27.0501 9.48116 26.9866 9.35084 26.9376L8.56315 26.6414" stroke="white" stroke-linecap="round"/>
<defs>
<clipPath id="clip0_84_207">
<rect width="16.8523" height="32" fill="white"/>
</clipPath>
</defs>
</svg>
