<svg width="1156" height="298" viewBox="0 0 1156 298" fill="none" xmlns="http://www.w3.org/2000/svg">
<path d="M348.102 227.953L348.727 219.047C348.727 216.391 348.115 214.451 346.891 213.227L347.672 212.406C348.74 213.448 350.042 213.969 351.578 213.969H365.367C366.93 213.969 368.232 213.448 369.273 212.406L370.055 213.227C369.039 214.242 368.531 215.544 368.531 217.133V262.836C368.531 264.398 369.039 265.701 370.055 266.742L369.273 267.523C368.258 266.508 366.956 266 365.367 266H351.578C349.99 266 348.688 266.508 347.672 267.523L346.891 266.742C347.88 265.753 348.375 264.451 348.375 262.836L348.297 249.711C348.297 248.148 348.792 246.859 349.781 245.844L349 245.062C348.01 246.052 346.708 246.547 345.094 246.547H329.078C327.49 246.547 326.188 246.052 325.172 245.062L324.391 245.844C324.443 246.443 324.469 249.594 324.469 255.297V272.914C324.469 275.284 324.768 278.643 325.367 282.992C325.966 287.341 326.266 290.414 326.266 292.211C326.266 294.008 326.044 295.232 325.602 295.883C325.185 296.534 324.677 296.859 324.078 296.859C323.479 296.859 322.958 296.534 322.516 295.883C322.099 295.258 321.891 294.607 321.891 293.93C321.891 293.279 322.021 291.755 322.281 289.359C323.062 282.12 323.453 276.677 323.453 273.031C323.453 271.234 322.906 269.672 321.812 268.344C319.677 265.766 316.747 264.477 313.023 264.477C311.122 264.477 309.521 264.919 308.219 265.805C306.943 266.69 306.305 267.914 306.305 269.477C306.305 271.065 306.552 273.383 307.047 276.43C307.568 279.477 307.828 281.586 307.828 282.758C307.828 285.18 307.073 286.391 305.562 286.391C304.859 286.391 304.26 286.117 303.766 285.57C303.271 285.049 303.023 284.177 303.023 282.953C303.023 281.755 303.44 279.594 304.273 276.469C305.133 273.344 305.562 270.909 305.562 269.164V217.133C305.562 215.492 305.068 214.19 304.078 213.227L304.82 212.406C305.888 213.448 307.19 213.969 308.727 213.969H322.75C324.286 213.969 325.576 213.448 326.617 212.406L327.438 213.227C326.24 214.424 325.641 216.378 325.641 219.086L326.227 228.07C326.227 230.753 325.615 232.706 324.391 233.93L325.172 234.75C326.188 233.734 327.49 233.227 329.078 233.227H345.25C346.839 233.227 348.128 233.734 349.117 234.75L349.938 233.93C348.714 232.68 348.102 230.688 348.102 227.953ZM378.727 268.5L378.844 274.711C378.844 275.961 378.648 276.898 378.258 277.523C377.867 278.174 377.398 278.5 376.852 278.5C375.758 278.5 375.211 277.445 375.211 275.336C375.211 273.227 375.471 270.883 375.992 268.305C376.513 265.753 376.969 263.995 377.359 263.031L396.109 216.898C396.37 216.221 396.5 215.557 396.5 214.906C396.5 214.255 396.279 213.617 395.836 212.992L396.93 212.289C397.685 213.409 398.857 213.969 400.445 213.969H418.414C419.977 213.969 421.135 213.409 421.891 212.289L423.023 212.992C422.581 213.617 422.359 214.216 422.359 214.789C422.359 215.362 422.516 216.052 422.828 216.859L442.125 263.07C442.724 264.529 443.648 265.674 444.898 266.508L444.43 267.25C443.154 266.417 441.734 266 440.172 266H432.516C432.568 266.573 432.594 266.977 432.594 267.211C432.594 268.07 432.242 268.5 431.539 268.5C431.227 268.5 430.94 268.37 430.68 268.109C430.445 267.875 430.328 267.523 430.328 267.055C430.328 266.612 430.354 266.26 430.406 266H425.68C424.534 266 423.792 266.625 423.453 267.875C423.036 269.411 422.828 271.169 422.828 273.148C422.828 275.154 422.958 276.977 423.219 278.617C423.479 280.258 423.609 281.378 423.609 281.977C423.609 282.602 423.453 283.096 423.141 283.461C422.854 283.852 422.49 284.047 422.047 284.047C421.604 284.047 421.227 283.865 420.914 283.5C420.602 283.135 420.445 282.628 420.445 281.977C420.445 281.326 420.602 280.062 420.914 278.188C421.253 276.312 421.422 274.906 421.422 273.969V262.992C421.161 262.289 421.031 261.638 421.031 261.039C421.031 260.44 421.266 259.802 421.734 259.125L420.719 258.383C419.938 259.503 418.766 260.062 417.203 260.062H401.148C399.586 260.062 398.414 259.516 397.633 258.422L396.617 259.125C397.112 259.828 397.359 260.479 397.359 261.078C397.359 261.677 397.268 262.315 397.086 262.992V263.031C396.852 263.917 396.734 264.594 396.734 265.062C396.734 265.531 396.995 266.143 397.516 266.898L396.5 267.641C395.719 266.547 394.547 266 392.984 266H378.844C378.766 266.495 378.727 267.328 378.727 268.5ZM405.172 249.242H412.633C414.195 249.242 415.602 249.659 416.852 250.492L417.359 249.75C416.135 248.917 415.25 247.758 414.703 246.273L409.742 233.578C409.169 232.094 408.87 230.583 408.844 229.047H408.336C408.284 230.766 408.023 232.276 407.555 233.578L403.062 246.234C402.516 247.745 401.643 248.917 400.445 249.75L400.953 250.531C402.177 249.672 403.583 249.242 405.172 249.242ZM430.523 278.93C430.523 277.133 430.862 274.88 431.539 272.172C432.294 275.297 432.672 277.328 432.672 278.266C432.672 279.646 432.307 280.336 431.578 280.336C430.875 280.336 430.523 279.867 430.523 278.93ZM513.688 278.812L514.547 270.727C514.547 267.445 513.206 264.945 510.523 263.227C507.867 261.482 505.068 260.714 502.125 260.922C499.182 261.104 497.125 262.094 495.953 263.891C495.354 264.75 495.055 265.766 495.055 266.938L494.859 277.406C494.859 278.839 495.081 280.961 495.523 283.773C495.966 286.612 496.188 288.747 496.188 290.18C496.188 292.706 495.471 293.969 494.039 293.969C492.607 293.969 491.891 292.745 491.891 290.297C491.891 288.682 492.125 286.365 492.594 283.344C493.062 280.323 493.323 278.031 493.375 276.469C493.453 274.906 493.492 271.573 493.492 266.469C493.492 265.115 493.076 263.552 492.242 261.781C491.409 260.01 490.094 257.576 488.297 254.477C486.5 251.378 485.029 248.643 483.883 246.273L482.711 245.609C482.086 246.755 480.979 247.328 479.391 247.328L476.109 247.445C473.87 247.445 472.19 246.898 471.07 245.805L470.25 246.586C470.328 247.549 470.367 249.607 470.367 252.758L470.328 262.328C470.328 265.193 470.38 267.302 470.484 268.656L471.227 274.398C471.227 275.466 470.862 276 470.133 276C469.404 276 469.039 275.505 469.039 274.516L469.664 269.672C469.664 268.5 469.312 267.562 468.609 266.859C467.932 266.182 467.034 265.844 465.914 265.844C464.82 265.844 463.844 266.326 462.984 267.289C462.151 268.279 461.734 269.555 461.734 271.117C461.734 272.68 462.021 274.789 462.594 277.445C463.167 280.128 463.453 282.055 463.453 283.227C463.453 285.674 462.581 286.898 460.836 286.898C459.091 286.898 458.219 285.701 458.219 283.305C458.219 282.185 458.466 280.232 458.961 277.445C459.482 274.659 459.742 272.445 459.742 270.805C459.742 269.164 459.365 267.81 458.609 266.742C457.854 265.701 456.995 265.18 456.031 265.18C455.068 265.18 454.247 265.505 453.57 266.156C452.893 266.833 452.555 267.667 452.555 268.656L453.609 277.914C453.609 279.503 453.023 280.297 451.852 280.297C450.68 280.297 450.094 279.49 450.094 277.875C450.094 276.938 450.341 275.297 450.836 272.953C451.331 270.635 451.565 268.826 451.539 267.523C451.513 266.221 451.5 249.372 451.5 216.977C451.5 215.362 451.005 214.073 450.016 213.109L450.797 212.328C451.812 213.318 453.102 213.812 454.664 213.812H489.664C495.133 213.812 498.805 213.982 500.68 214.32C502.581 214.633 504.234 214.971 505.641 215.336C507.073 215.701 508.271 216.156 509.234 216.703C510.224 217.224 511.214 217.888 512.203 218.695C513.219 219.477 514.026 220.375 514.625 221.391C516.005 223.708 516.695 226.169 516.695 228.773C516.695 231.378 516.487 233.513 516.07 235.18C515.68 236.82 515.016 238.37 514.078 239.828C512.047 242.979 508.479 244.555 503.375 244.555L503.062 245.453C504.703 246.104 505.797 247.003 506.344 248.148C508.635 253.148 510.328 256.326 511.422 257.68C512.516 259.008 513.531 260.076 514.469 260.883C515.406 261.69 516.747 262.51 518.492 263.344C520.237 264.177 521.292 264.724 521.656 264.984C522.021 265.219 522.203 265.414 522.203 265.57C522.203 268.174 522.555 271.521 523.258 275.609C523.961 279.698 524.312 282.328 524.312 283.5C524.312 284.672 524.26 285.518 524.156 286.039C524.078 286.56 523.883 287.068 523.57 287.562C523.258 288.083 522.802 288.344 522.203 288.344C521.604 288.344 521.148 287.914 520.836 287.055C520.549 286.195 520.406 285.141 520.406 283.891C520.406 282.641 520.576 280.401 520.914 277.172C521.253 273.969 521.422 271.547 521.422 269.906C521.422 266.651 520.367 265.023 518.258 265.023C517.216 265.023 516.435 265.206 515.914 265.57C515.419 265.935 515.172 266.677 515.172 267.797C515.172 268.943 515.406 270.753 515.875 273.227C516.344 275.701 516.578 277.562 516.578 278.812C516.578 280.089 516.096 280.727 515.133 280.727C514.169 280.727 513.688 280.089 513.688 278.812ZM487.672 226.781L478.453 227.055C474.677 227.055 472.216 226.495 471.07 225.375L470.25 226.117C471.292 227.133 471.812 228.435 471.812 230.023V232.641C471.812 234.203 471.292 235.505 470.25 236.547L471.07 237.328C472.19 236.182 474.508 235.609 478.023 235.609L487.906 235.961C490.536 235.961 492.568 235.622 494 234.945C495.458 234.242 496.188 232.966 496.188 231.117C496.188 229.945 495.784 229.034 494.977 228.383C494.169 227.706 493.193 227.276 492.047 227.094C490.901 226.885 489.443 226.781 487.672 226.781ZM552.203 275.648L553.023 270.102C553.023 266.273 548.935 264.359 540.758 264.359C539.352 264.359 538.375 264.685 537.828 265.336C537.281 265.987 537.008 267.094 537.008 268.656C537.008 270.219 537.242 272.38 537.711 275.141C538.18 277.927 538.414 280.049 538.414 281.508C538.414 282.992 537.828 283.734 536.656 283.734C535.484 283.734 534.898 282.953 534.898 281.391C534.898 279.854 535.081 277.523 535.445 274.398C535.81 271.273 535.992 269.151 535.992 268.031C535.992 265.375 535.51 264.047 534.547 264.047C533.922 264.047 533.609 264.789 533.609 266.273L534.547 272.758C534.547 274.294 533.987 275.062 532.867 275.062C531.773 275.062 531.227 274.281 531.227 272.719L532.125 265.531L532.086 259.047V217.133C532.086 215.518 531.578 214.216 530.562 213.227L531.344 212.406C532.411 213.448 533.714 213.969 535.25 213.969H567.516C583.089 213.969 592.75 219.034 596.5 229.164C597.542 232.029 598.062 235.089 598.062 238.344C598.062 241.573 597.854 244.359 597.438 246.703C597.047 249.021 596.539 251.065 595.914 252.836C595.289 254.581 594.404 256.13 593.258 257.484C592.138 258.839 591.005 259.984 589.859 260.922C588.74 261.833 587.307 262.615 585.562 263.266C583.818 263.917 582.203 264.424 580.719 264.789C579.234 265.128 577.372 265.388 575.133 265.57C571.617 265.857 567.49 266 562.75 266H557.086C554.898 266 553.805 267.562 553.805 270.688L554.43 275.688C554.43 276.677 554.091 277.172 553.414 277.172C552.607 277.172 552.203 276.664 552.203 275.648ZM574.586 248.773C575.393 247.732 576.018 246.391 576.461 244.75C576.904 243.083 577.125 241.091 577.125 238.773C577.125 236.43 576.734 234.477 575.953 232.914C575.172 231.352 574.13 230.206 572.828 229.477C571.526 228.747 570.081 228.214 568.492 227.875C566.904 227.51 565.237 227.315 563.492 227.289C561.747 227.237 560.12 227.198 558.609 227.172C554.911 227.12 552.542 226.573 551.5 225.531L550.719 226.312C551.708 227.276 552.203 228.578 552.203 230.219V239.203C552.203 245.193 552.229 249.672 552.281 252.641H561.148C565.602 252.641 568.753 252.25 570.602 251.469C572.477 250.688 573.805 249.789 574.586 248.773ZM554.703 289.477C554.703 290.674 554.26 291.273 553.375 291.273C552.516 291.273 552.086 290.779 552.086 289.789C552.086 288.826 552.138 287.979 552.242 287.25C552.372 286.521 552.581 285.583 552.867 284.438C553.154 283.318 553.323 282.615 553.375 282.328C553.453 282.667 553.596 283.227 553.805 284.008C554.013 284.815 554.169 285.44 554.273 285.883C554.56 287.107 554.703 288.305 554.703 289.477ZM651.891 277.406L652.281 273.461V266.156C645.276 265.792 640.042 264.841 636.578 263.305C633.115 261.742 630.562 259.789 628.922 257.445C627.932 256.065 627.164 254.529 626.617 252.836C626.096 251.117 625.224 249.828 624 248.969L624.586 248.148C625.758 248.93 627.021 249.32 628.375 249.32C629.755 249.32 631.513 249.268 633.648 249.164C635.784 249.06 638.193 248.943 640.875 248.812C643.557 248.656 645.471 248.552 646.617 248.5C647.763 248.448 648.609 248.292 649.156 248.031C649.703 247.745 650.094 247.237 650.328 246.508L652.086 247.094C652.008 247.302 651.969 247.576 651.969 247.914C651.969 248.773 652.685 249.75 654.117 250.844C655.549 251.938 658.141 252.484 661.891 252.484C664.417 252.484 666.214 252.055 667.281 251.195C667.75 250.805 667.984 250.336 667.984 249.789C667.984 248.513 667.281 247.667 665.875 247.25C664.469 246.833 662.763 246.482 660.758 246.195C658.779 245.883 656.786 245.635 654.781 245.453C652.802 245.271 650.654 245.01 648.336 244.672C646.018 244.333 643.831 243.969 641.773 243.578C639.716 243.161 637.711 242.562 635.758 241.781C633.831 241 632.177 240.089 630.797 239.047C629.417 237.979 628.297 236.625 627.438 234.984C626.604 233.318 626.188 231.43 626.188 229.32C626.188 227.211 626.513 225.284 627.164 223.539C627.841 221.794 628.753 220.297 629.898 219.047C631.044 217.797 632.424 216.69 634.039 215.727C635.68 214.763 637.385 213.982 639.156 213.383C640.953 212.784 642.906 212.302 645.016 211.938C648.688 211.26 652.151 210.922 655.406 210.922C658.661 210.922 661.135 210.974 662.828 211.078C664.547 211.156 666.552 211.326 668.844 211.586C671.161 211.82 673.245 212.224 675.094 212.797C676.969 213.344 678.818 214.047 680.641 214.906C684.443 216.677 687.112 219.424 688.648 223.148C689.273 224.477 690.133 225.714 691.227 226.859L690.719 227.758C689.625 227.003 688.362 226.625 686.93 226.625H686.422C684.339 226.703 681.357 226.859 677.477 227.094C673.622 227.302 671.135 227.432 670.016 227.484C668.922 227.536 668.128 227.693 667.633 227.953C667.164 228.214 666.826 228.708 666.617 229.438L664.898 228.969C664.977 228.734 665.016 228.487 665.016 228.227C665.016 227.133 664.13 226.195 662.359 225.414C660.589 224.607 658.583 224.203 656.344 224.203C651.969 224.203 649.781 225.062 649.781 226.781C649.781 228.318 653.062 229.438 659.625 230.141C661.161 230.323 662.906 230.505 664.859 230.688C671.656 231.391 676.865 232.315 680.484 233.461C688.089 235.857 691.891 240.427 691.891 247.172C691.891 249.932 691.318 252.419 690.172 254.633C689.026 256.82 687.529 258.604 685.68 259.984C683.857 261.365 681.695 262.51 679.195 263.422C674.69 265.062 669.547 265.883 663.766 265.883C662.203 265.883 661.279 265.87 660.992 265.844C659.586 265.844 658.883 266.924 658.883 269.086V270.023C658.883 270.727 659.052 271.755 659.391 273.109C659.755 274.49 659.938 275.518 659.938 276.195C659.938 277.576 659.456 278.266 658.492 278.266C657.997 278.266 657.607 278.057 657.32 277.641C657.06 277.224 656.93 276.703 656.93 276.078C656.93 275.453 657.086 274.385 657.398 272.875C657.737 271.391 657.906 270.31 657.906 269.633C657.906 268.956 657.893 268.474 657.867 268.188C657.867 267.927 657.828 267.589 657.75 267.172C657.698 266.781 657.594 266.495 657.438 266.312C657.073 265.844 656.448 265.609 655.562 265.609C653.948 265.609 653.141 267.016 653.141 269.828L653.375 276.234C653.375 277.953 653.128 278.812 652.633 278.812C652.138 278.812 651.891 278.344 651.891 277.406ZM699.469 224.086L699.664 219.086C699.664 216.221 699.104 214.242 697.984 213.148L698.766 212.367C699.807 213.383 701.096 213.891 702.633 213.891H753.922C755.51 213.891 756.812 213.383 757.828 212.367L758.609 213.148C757.62 214.138 757.125 215.44 757.125 217.055L756.93 222.055C756.93 224.867 757.49 226.833 758.609 227.953L757.828 228.773C756.656 227.576 754.755 226.977 752.125 226.977L743.492 227.523C740.758 227.523 738.792 226.924 737.594 225.727L736.773 226.508C737.789 227.497 738.297 228.799 738.297 230.414V262.836C738.297 265.544 738.531 269.581 739 274.945C739.495 280.31 739.742 283.839 739.742 285.531C739.742 288.5 739.208 289.984 738.141 289.984C737.073 289.984 736.539 288.93 736.539 286.82C736.539 284.711 736.708 281.846 737.047 278.227C737.411 274.633 737.594 271.924 737.594 270.102C737.594 267.263 737.034 265.844 735.914 265.844C735.367 265.844 734.938 266.169 734.625 266.82C734.312 267.471 734.156 268.109 734.156 268.734L735.055 276.898C735.055 278.773 734.521 279.711 733.453 279.711C732.906 279.711 732.503 279.438 732.242 278.891C731.982 278.344 731.852 277.706 731.852 276.977C731.852 276.247 732.086 275.049 732.555 273.383C733.023 271.742 733.258 270.401 733.258 269.359C733.258 268.318 732.802 267.523 731.891 266.977C731.005 266.43 729.872 266.156 728.492 266.156C727.138 266.156 725.719 266.43 724.234 266.977C722.776 267.523 721.487 268.37 720.367 269.516C719.247 270.688 718.688 271.833 718.688 272.953C718.688 274.099 718.857 275.479 719.195 277.094C719.56 278.708 719.742 280.049 719.742 281.117C719.742 282.211 719.26 282.758 718.297 282.758C717.203 282.758 716.656 282.172 716.656 281C716.656 279.854 716.865 278.396 717.281 276.625C717.698 274.854 717.906 273.526 717.906 272.641V262.484C717.958 248.214 717.984 237.523 717.984 230.414C717.984 228.773 718.479 227.471 719.469 226.508L718.688 225.727C717.542 226.898 715.641 227.484 712.984 227.484L704.586 226.977C701.904 226.977 699.964 227.576 698.766 228.773L697.984 227.953C698.974 226.964 699.469 225.674 699.469 224.086ZM733.141 285.609C733.766 288.474 734.078 290.961 734.078 293.07C734.078 293.982 733.753 294.438 733.102 294.438C732.451 294.438 732.125 294.021 732.125 293.188C732.125 290.844 732.464 288.318 733.141 285.609ZM789.156 279.828L789.586 272.172C789.586 267.797 789.039 265.609 787.945 265.609C786.852 265.609 786.305 266.99 786.305 269.75V270.883C786.305 272.003 786.552 273.669 787.047 275.883C787.568 278.096 787.828 279.776 787.828 280.922C787.828 282.693 787.164 283.578 785.836 283.578C784.534 283.578 783.883 282.693 783.883 280.922C783.883 279.724 784.156 277.979 784.703 275.688C785.25 273.396 785.523 271.651 785.523 270.453L785.445 254.516C785.445 253.708 785.549 253.083 785.758 252.641C785.992 252.198 786.461 251.872 787.164 251.664L786.773 250.18C786.409 250.284 786.083 250.336 785.797 250.336C785.536 250.336 785.263 250.245 784.977 250.062C784.638 249.828 784.247 249.359 783.805 248.656L764 216.391C763.219 215.115 762.151 214.073 760.797 213.266L761.148 212.602C762.451 213.331 763.922 213.695 765.562 213.695L781.305 213.617C782.867 213.617 783.974 213.057 784.625 211.938L785.836 212.602C785.497 213.227 785.328 213.917 785.328 214.672C785.328 215.401 785.849 216.664 786.891 218.461C787.958 220.258 789.117 222.003 790.367 223.695C791.643 225.388 792.802 227.263 793.844 229.32C794.911 231.378 795.445 233.161 795.445 234.672H796.266V234.359C796.266 231.911 797.958 228.344 801.344 223.656C804.729 218.969 806.422 215.831 806.422 214.242C806.422 213.826 806.24 213.279 805.875 212.602L807.086 211.938C807.737 213.057 808.857 213.617 810.445 213.617L825.25 213.695C826.865 213.695 828.323 213.331 829.625 212.602L829.977 213.266C828.57 214.099 827.49 215.141 826.734 216.391L806.734 248.656C806.057 249.776 805.367 250.336 804.664 250.336C804.378 250.336 804.078 250.284 803.766 250.18L803.297 251.625C804.547 252.016 805.172 253.318 805.172 255.531L804.938 260.961C804.938 263.461 805.484 265.258 806.578 266.352L805.758 267.133C804.742 266.117 803.453 265.609 801.891 265.609H792.75C791.083 265.609 790.25 267.966 790.25 272.68L790.836 279.945C790.836 280.857 790.549 281.312 789.977 281.312C789.43 281.312 789.156 280.818 789.156 279.828ZM892.008 255.688L891.852 260.766C891.852 263.604 892.424 265.596 893.57 266.742L892.75 267.523C891.76 266.508 890.458 266 888.844 266H877.477C877.503 266.365 877.516 266.846 877.516 267.445C877.516 268.904 877.151 269.633 876.422 269.633C875.693 269.633 875.328 268.812 875.328 267.172C875.328 266.677 875.341 266.286 875.367 266H840.406C839.781 266 839.234 267.12 838.766 269.359C838.323 271.625 838.102 273.435 838.102 274.789C838.102 276.143 838.414 278.565 839.039 282.055C839.664 285.57 839.977 288.305 839.977 290.258C839.977 292.237 839.208 293.227 837.672 293.227C836.005 293.227 835.172 292.211 835.172 290.18C835.172 288.148 835.523 285.323 836.227 281.703C836.93 278.109 837.281 275.401 837.281 273.578L837.242 217.133C837.242 215.544 836.721 214.242 835.68 213.227L836.5 212.406C837.568 213.448 838.87 213.969 840.406 213.969H854.391C855.979 213.969 857.281 213.448 858.297 212.406L859.117 213.227C858.076 214.242 857.555 215.544 857.555 217.133V249.359C857.555 250.922 857.047 252.211 856.031 253.227L856.852 254.047C858.18 252.719 861.083 252.055 865.562 252.055L884.078 252.992C888.531 252.992 891.422 252.328 892.75 251L893.57 251.781C892.529 252.797 892.008 254.099 892.008 255.688ZM877.75 283.344C877.75 284.411 877.307 284.945 876.422 284.945C875.536 284.945 875.094 284.307 875.094 283.031C875.094 281.911 875.302 280.531 875.719 278.891C876.161 277.276 876.396 276.404 876.422 276.273C876.474 276.534 876.604 277.068 876.812 277.875C877.021 278.682 877.177 279.307 877.281 279.75C877.594 281.078 877.75 282.276 877.75 283.344ZM924.039 259.516L923.414 254.672V254.242C923.961 253.279 924.703 252.797 925.641 252.797L957.516 252.836C959.104 252.836 960.393 252.328 961.383 251.312L962.164 252.094C960.706 254.776 959.977 259.633 959.977 266.664C959.977 267.758 960.211 269.867 960.68 272.992C961.174 276.143 961.422 278.227 961.422 279.242C961.422 280.284 961.253 281.052 960.914 281.547C960.576 282.042 960.172 282.289 959.703 282.289C959.234 282.289 958.818 282.016 958.453 281.469C958.115 280.922 957.945 280.167 957.945 279.203L958.57 270.57C958.57 268.279 958.167 266.56 957.359 265.414C956.552 264.242 955.458 263.656 954.078 263.656C950.979 263.656 949.43 265.987 949.43 270.648C949.43 272.445 949.69 275.049 950.211 278.461C950.758 281.872 951.031 284.008 951.031 284.867C951.031 285.727 950.836 286.378 950.445 286.82C950.055 287.289 949.599 287.523 949.078 287.523C948.583 287.523 948.141 287.302 947.75 286.859C947.385 286.443 947.203 285.87 947.203 285.141L947.906 272.68C947.906 268.122 946.93 265.844 944.977 265.844L942.008 265.922H911.305C908.987 265.922 907.281 266.365 906.188 267.25C904.938 268.292 904.312 271.234 904.312 276.078C904.312 278.031 904.612 280.909 905.211 284.711C905.81 288.539 906.109 291.417 906.109 293.344C906.109 296.13 905.12 297.523 903.141 297.523C901.005 297.523 899.938 296.091 899.938 293.227C899.938 291.273 900.367 288.383 901.227 284.555C902.086 280.727 902.516 277.823 902.516 275.844L902.32 262.758V217.211C902.32 215.596 901.826 214.307 900.836 213.344L901.617 212.523C902.685 213.539 903.987 214.047 905.523 214.047H955.68C957.268 214.047 958.57 213.539 959.586 212.523L960.367 213.344C959.221 214.49 958.648 216.729 958.648 220.062V221.82C958.648 224.763 959.221 226.781 960.367 227.875L959.586 228.617C958.284 227.289 955.224 226.625 950.406 226.625L930.992 227.523C926.201 227.523 923.154 226.859 921.852 225.531L921.031 226.312C922.047 227.302 922.555 228.617 922.555 230.258C922.555 231.872 922.047 233.174 921.031 234.164L921.852 234.906C923.102 233.604 925.732 232.953 929.742 232.953L946.109 233.852C950.146 233.852 952.815 233.201 954.117 231.898L954.938 232.68C953.792 233.826 953.219 236.221 953.219 239.867V241.391C953.219 244.177 953.792 246.143 954.938 247.289L954.117 248.109C952.867 246.807 950.224 246.156 946.188 246.156L929.82 247.016C925.81 247.016 923.154 246.365 921.852 245.062L921.07 245.844C922.164 246.964 922.711 248.917 922.711 251.703L922.633 254.75L921.969 259.438C921.969 260.375 922.307 260.844 922.984 260.844C923.688 260.844 924.039 260.401 924.039 259.516Z" fill="black"/>
<rect x="201.694" y="178" width="64.9371" height="17.8939" rx="8.94695" transform="rotate(90 201.694 178)" fill="black"/>
<path d="M266 248.014C266 269.001 248.987 286.014 228 286.014L212.8 286.014C196.784 286.014 183.8 273.03 183.8 257.014L183.8 232.65L266 232.65L266 248.014Z" fill="black"/>
<mask id="path-4-outside-1_6_100" maskUnits="userSpaceOnUse" x="223.5" y="216" width="25" height="34" fill="black">
<rect fill="white" x="223.5" y="216" width="25" height="34"/>
<path d="M236.553 216C241.494 216 245.5 220.006 245.5 224.947L245.5 235.342C245.5 240.284 241.494 244.289 236.553 244.289C231.612 244.289 227.606 240.284 227.606 235.342L227.606 224.947C227.606 220.006 231.612 216 236.553 216Z"/>
</mask>
<path d="M236.553 216C241.494 216 245.5 220.006 245.5 224.947L245.5 235.342C245.5 240.284 241.494 244.289 236.553 244.289C231.612 244.289 227.606 240.284 227.606 235.342L227.606 224.947C227.606 220.006 231.612 216 236.553 216Z" fill="black"/>
<path d="M236.553 216C242.765 216 247.8 221.035 247.8 227.247L247.8 238.042C247.8 244.254 242.765 249.289 236.553 249.289L236.553 239.289C240.224 239.289 243.2 237.522 243.2 235.342L243.2 224.947C243.2 220.006 240.224 216 236.553 216ZM236.553 249.289C229.403 249.289 223.606 243.493 223.606 236.342L223.606 228.947C223.606 221.797 229.403 216 236.553 216C233.821 216 231.606 220.006 231.606 224.947L231.606 235.342C231.606 237.522 233.821 239.289 236.553 239.289L236.553 249.289ZM227.606 216L245.5 216L227.606 216ZM247.8 238.042C247.8 244.254 242.765 249.289 236.553 249.289C229.403 249.289 223.606 243.493 223.606 236.342L231.606 235.342C231.606 237.522 233.821 239.289 236.553 239.289C240.224 239.289 243.2 237.522 243.2 235.342L247.8 238.042Z" fill="white" mask="url(#path-4-outside-1_6_100)"/>
<mask id="path-6-outside-2_6_100" maskUnits="userSpaceOnUse" x="200.894" y="216" width="25" height="34" fill="black">
<rect fill="white" x="200.894" y="216" width="25" height="34"/>
<path d="M212.947 216C217.888 216 221.894 220.006 221.894 224.947L221.894 235.342C221.894 240.284 217.888 244.289 212.947 244.289C208.006 244.289 204 240.284 204 235.342L204 224.947C204 220.006 208.006 216 212.947 216Z"/>
</mask>
<path d="M212.947 216C217.888 216 221.894 220.006 221.894 224.947L221.894 235.342C221.894 240.284 217.888 244.289 212.947 244.289C208.006 244.289 204 240.284 204 235.342L204 224.947C204 220.006 208.006 216 212.947 216Z" fill="black"/>
<path d="M212.947 216C220.097 216 225.894 221.797 225.894 228.947L225.894 236.342C225.894 243.493 220.097 249.289 212.947 249.289L212.947 239.289C215.679 239.289 217.894 237.522 217.894 235.342L217.894 224.947C217.894 220.006 215.679 216 212.947 216ZM212.947 249.289C206.735 249.289 201.7 244.254 201.7 238.042L201.7 227.247C201.7 221.035 206.735 216 212.947 216C209.276 216 206.3 220.006 206.3 224.947L206.3 235.342C206.3 237.522 209.276 239.289 212.947 239.289L212.947 249.289ZM204 216L221.894 216L204 216ZM225.894 236.342C225.894 243.493 220.097 249.289 212.947 249.289C206.735 249.289 201.7 244.254 201.7 238.042L206.3 235.342C206.3 237.522 209.276 239.289 212.947 239.289C215.679 239.289 217.894 237.522 217.894 235.342L225.894 236.342Z" fill="white" mask="url(#path-6-outside-2_6_100)"/>
<rect width="61.9607" height="20.0537" rx="10.0268" transform="matrix(0.791855 0.610709 -0.503905 0.863759 162.691 230.23)" fill="black"/>
<rect x="266" y="193.036" width="53.813" height="18.2414" rx="9.12069" transform="rotate(90 266 193.036)" fill="black"/>
<g clip-path="url(#clip0_6_100)">
<path d="M104 175C120.016 175 133 135.825 133 87.5C133 39.1751 120.016 0 104 0C87.9837 0 75 39.1751 75 87.5C75 135.825 87.9837 175 104 175Z" fill="black"/>
<path d="M42 175C58.0163 175 71 135.825 71 87.5C71 39.1751 58.0163 0 42 0C25.9837 0 13 39.1751 13 87.5C13 135.825 25.9837 175 42 175Z" fill="black"/>
<path d="M75.5 287C116.645 287 150 253.645 150 212.5C150 171.355 116.645 138 75.5 138C34.3548 138 1 171.355 1 212.5C1 253.645 34.3548 287 75.5 287Z" fill="black" stroke="white" stroke-width="3"/>
</g>
<rect x="73.0981" y="241" width="7" height="8" rx="2" fill="white"/>
<line x1="76.5981" y1="222.5" x2="76.5981" y2="239.5" stroke="white" stroke-width="3" stroke-linecap="round"/>
<path d="M91.0021 212L89.5109 213.245C86.8693 215.452 84.0684 217.46 81.1309 219.255L77.1836 221.666" stroke="white" stroke-width="3" stroke-linecap="round"/>
<path d="M62.3497 212L63.8409 213.245C66.4825 215.452 69.2835 217.46 72.2209 219.255L76.1682 221.666" stroke="white" stroke-width="3" stroke-linecap="round"/>
<path d="M61.9262 248.157L62.3603 247.507C63.1895 246.264 64.2241 245.172 65.4199 244.276V244.276C66.4589 243.497 67.6074 242.877 68.8281 242.433L76.155 239.774" stroke="white" stroke-width="3" stroke-linecap="round"/>
<path d="M91.3373 248.199L90.9853 247.746C89.8947 246.344 88.5849 245.128 87.1062 244.143V244.143C86.0675 243.451 84.9536 242.879 83.7859 242.438L76.7281 239.773" stroke="white" stroke-width="3" stroke-linecap="round"/>
<defs>
<clipPath id="clip0_6_100">
<rect width="151" height="288" fill="white"/>
</clipPath>
</defs>
</svg>
