<svg width="1156" height="291" viewBox="0 0 1156 291" fill="none" xmlns="http://www.w3.org/2000/svg">
<path d="M364.742 249V224.379H324.18V249H308.238V189.961H324.18V211.445H364.742V189.961H380.684V249H364.742ZM446.598 237.828H413.684L408.141 249H390.352L421.246 189.961H439.035L469.93 249H452.141L446.598 237.828ZM419.398 226.312H440.969L430.227 204.57L419.398 226.312ZM495.539 249H479.598V189.961H519.559C523.855 189.961 527.493 190.405 530.473 191.293C533.48 192.181 535.915 193.441 537.777 195.074C539.668 196.707 541.029 198.684 541.859 201.004C542.719 203.296 543.148 205.859 543.148 208.695C543.148 211.188 542.79 213.365 542.074 215.227C541.387 217.089 540.441 218.693 539.238 220.039C538.064 221.357 536.689 222.474 535.113 223.391C533.538 224.307 531.876 225.066 530.129 225.668L549.465 249H530.816L512.941 227.258H495.539V249ZM527.035 208.609C527.035 207.464 526.878 206.49 526.562 205.688C526.276 204.885 525.76 204.241 525.016 203.754C524.271 203.238 523.268 202.866 522.008 202.637C520.776 202.408 519.229 202.293 517.367 202.293H495.539V214.926H517.367C519.229 214.926 520.776 214.811 522.008 214.582C523.268 214.353 524.271 213.995 525.016 213.508C525.76 212.992 526.276 212.333 526.562 211.531C526.878 210.729 527.035 209.755 527.035 208.609ZM633.211 219.438C633.211 223.219 632.796 226.585 631.965 229.535C631.134 232.457 629.96 235.007 628.441 237.184C626.952 239.361 625.147 241.208 623.027 242.727C620.936 244.245 618.602 245.462 616.023 246.379C613.445 247.296 610.667 247.969 607.688 248.398C604.708 248.799 601.6 249 598.363 249H560.895V189.961H598.277C601.514 189.961 604.622 190.176 607.602 190.605C610.581 191.007 613.359 191.665 615.938 192.582C618.544 193.499 620.908 194.716 623.027 196.234C625.147 197.724 626.952 199.572 628.441 201.777C629.96 203.954 631.134 206.504 631.965 209.426C632.796 212.348 633.211 215.685 633.211 219.438ZM617.141 219.438C617.141 216.602 616.768 214.138 616.023 212.047C615.307 209.956 614.133 208.237 612.5 206.891C610.896 205.516 608.79 204.499 606.184 203.84C603.577 203.152 600.397 202.809 596.645 202.809H576.836V236.152H596.645C600.397 236.152 603.577 235.823 606.184 235.164C608.79 234.477 610.896 233.445 612.5 232.07C614.133 230.667 615.307 228.919 616.023 226.828C616.768 224.737 617.141 222.273 617.141 219.438ZM735.262 206.59C734.145 206.046 732.669 205.43 730.836 204.742C729.003 204.055 726.926 203.41 724.605 202.809C722.285 202.178 719.764 201.663 717.043 201.262C714.322 200.832 711.529 200.617 708.664 200.617C706.372 200.617 704.41 200.689 702.777 200.832C701.173 200.975 699.812 201.161 698.695 201.391C697.607 201.62 696.733 201.892 696.074 202.207C695.444 202.493 694.957 202.794 694.613 203.109C694.27 203.424 694.04 203.74 693.926 204.055C693.84 204.37 693.797 204.656 693.797 204.914C693.797 205.773 694.227 206.533 695.086 207.191C695.945 207.822 697.12 208.395 698.609 208.91C700.099 209.397 701.832 209.87 703.809 210.328C705.785 210.758 707.876 211.216 710.082 211.703C712.316 212.161 714.608 212.677 716.957 213.25C719.335 213.794 721.626 214.439 723.832 215.184C726.066 215.928 728.172 216.802 730.148 217.805C732.125 218.779 733.858 219.924 735.348 221.242C736.837 222.56 738.012 224.078 738.871 225.797C739.73 227.516 740.16 229.478 740.16 231.684C740.16 234.52 739.659 236.954 738.656 238.988C737.654 241.022 736.307 242.741 734.617 244.145C732.956 245.548 731.022 246.68 728.816 247.539C726.611 248.37 724.29 249.014 721.855 249.473C719.449 249.931 717 250.232 714.508 250.375C712.044 250.518 709.695 250.59 707.461 250.59C701.617 250.59 696.203 250.103 691.219 249.129C686.263 248.184 681.88 246.995 678.07 245.562V231.469C681.995 233.646 686.464 235.35 691.477 236.582C696.518 237.814 701.904 238.43 707.633 238.43C711.013 238.43 713.763 238.258 715.883 237.914C718.031 237.542 719.707 237.083 720.91 236.539C722.113 235.966 722.93 235.35 723.359 234.691C723.789 234.033 724.004 233.402 724.004 232.801C724.004 231.855 723.574 231.039 722.715 230.352C721.855 229.635 720.681 229.02 719.191 228.504C717.702 227.96 715.969 227.473 713.992 227.043C712.016 226.585 709.91 226.141 707.676 225.711C705.47 225.253 703.193 224.766 700.844 224.25C698.495 223.734 696.203 223.133 693.969 222.445C691.763 221.729 689.672 220.913 687.695 219.996C685.719 219.051 683.986 217.948 682.496 216.688C681.007 215.398 679.832 213.923 678.973 212.262C678.113 210.572 677.684 208.624 677.684 206.418C677.684 203.811 678.142 201.562 679.059 199.672C679.975 197.781 681.207 196.177 682.754 194.859C684.329 193.513 686.134 192.424 688.168 191.594C690.23 190.763 692.393 190.118 694.656 189.66C696.919 189.202 699.211 188.887 701.531 188.715C703.852 188.543 706.057 188.457 708.148 188.457C710.44 188.457 712.789 188.572 715.195 188.801C717.63 189.03 720.022 189.359 722.371 189.789C724.72 190.19 726.983 190.663 729.16 191.207C731.366 191.751 733.4 192.324 735.262 192.926V206.59ZM788.371 202.809V249H772.43V202.809H747.379V189.961H813.465V202.809H788.371ZM861.074 224.895V249H845.176V224.895L816.559 189.961H834.434L853.168 213.723L871.816 189.961H889.691L861.074 224.895ZM900.691 249V189.961H916.633V236.066H959.73V249H900.691ZM972.535 249V189.961H1032.3V202.551H988.906V212.305H1030.07V224.895H988.906V236.41H1032.91V249H972.535Z" fill="black"/>
<rect x="201.694" y="178" width="64.9371" height="17.8939" rx="8.94695" transform="rotate(90 201.694 178)" fill="black"/>
<path d="M266 248.014C266 269.001 248.987 286.014 228 286.014L212.8 286.014C196.784 286.014 183.8 273.03 183.8 257.014L183.8 232.65L266 232.65L266 248.014Z" fill="black"/>
<mask id="path-4-outside-1_6_37" maskUnits="userSpaceOnUse" x="223.5" y="216" width="25" height="34" fill="black">
<rect fill="white" x="223.5" y="216" width="25" height="34"/>
<path d="M236.553 216C241.494 216 245.5 220.006 245.5 224.947L245.5 235.342C245.5 240.284 241.494 244.289 236.553 244.289C231.612 244.289 227.606 240.284 227.606 235.342L227.606 224.947C227.606 220.006 231.612 216 236.553 216Z"/>
</mask>
<path d="M236.553 216C241.494 216 245.5 220.006 245.5 224.947L245.5 235.342C245.5 240.284 241.494 244.289 236.553 244.289C231.612 244.289 227.606 240.284 227.606 235.342L227.606 224.947C227.606 220.006 231.612 216 236.553 216Z" fill="black"/>
<path d="M236.553 216C242.765 216 247.8 221.035 247.8 227.247L247.8 238.042C247.8 244.254 242.765 249.289 236.553 249.289L236.553 239.289C240.224 239.289 243.2 237.522 243.2 235.342L243.2 224.947C243.2 220.006 240.224 216 236.553 216ZM236.553 249.289C229.403 249.289 223.606 243.493 223.606 236.342L223.606 228.947C223.606 221.797 229.403 216 236.553 216C233.821 216 231.606 220.006 231.606 224.947L231.606 235.342C231.606 237.522 233.821 239.289 236.553 239.289L236.553 249.289ZM227.606 216L245.5 216L227.606 216ZM247.8 238.042C247.8 244.254 242.765 249.289 236.553 249.289C229.403 249.289 223.606 243.493 223.606 236.342L231.606 235.342C231.606 237.522 233.821 239.289 236.553 239.289C240.224 239.289 243.2 237.522 243.2 235.342L247.8 238.042Z" fill="white" mask="url(#path-4-outside-1_6_37)"/>
<mask id="path-6-outside-2_6_37" maskUnits="userSpaceOnUse" x="200.894" y="216" width="25" height="34" fill="black">
<rect fill="white" x="200.894" y="216" width="25" height="34"/>
<path d="M212.947 216C217.888 216 221.894 220.006 221.894 224.947L221.894 235.342C221.894 240.284 217.888 244.289 212.947 244.289C208.006 244.289 204 240.284 204 235.342L204 224.947C204 220.006 208.006 216 212.947 216Z"/>
</mask>
<path d="M212.947 216C217.888 216 221.894 220.006 221.894 224.947L221.894 235.342C221.894 240.284 217.888 244.289 212.947 244.289C208.006 244.289 204 240.284 204 235.342L204 224.947C204 220.006 208.006 216 212.947 216Z" fill="black"/>
<path d="M212.947 216C220.097 216 225.894 221.797 225.894 228.947L225.894 236.342C225.894 243.493 220.097 249.289 212.947 249.289L212.947 239.289C215.679 239.289 217.894 237.522 217.894 235.342L217.894 224.947C217.894 220.006 215.679 216 212.947 216ZM212.947 249.289C206.735 249.289 201.7 244.254 201.7 238.042L201.7 227.247C201.7 221.035 206.735 216 212.947 216C209.276 216 206.3 220.006 206.3 224.947L206.3 235.342C206.3 237.522 209.276 239.289 212.947 239.289L212.947 249.289ZM204 216L221.894 216L204 216ZM225.894 236.342C225.894 243.493 220.097 249.289 212.947 249.289C206.735 249.289 201.7 244.254 201.7 238.042L206.3 235.342C206.3 237.522 209.276 239.289 212.947 239.289C215.679 239.289 217.894 237.522 217.894 235.342L225.894 236.342Z" fill="white" mask="url(#path-6-outside-2_6_37)"/>
<rect width="61.9607" height="20.0537" rx="10.0268" transform="matrix(0.791855 0.610709 -0.503905 0.863759 162.691 230.23)" fill="black"/>
<rect x="266" y="193.036" width="53.813" height="18.2414" rx="9.12069" transform="rotate(90 266 193.036)" fill="black"/>
<g clip-path="url(#clip0_6_37)">
<path d="M104 175C120.016 175 133 135.825 133 87.5C133 39.1751 120.016 0 104 0C87.9837 0 75 39.1751 75 87.5C75 135.825 87.9837 175 104 175Z" fill="black"/>
<path d="M42 175C58.0163 175 71 135.825 71 87.5C71 39.1751 58.0163 0 42 0C25.9837 0 13 39.1751 13 87.5C13 135.825 25.9837 175 42 175Z" fill="black"/>
<path d="M75.5 287C116.645 287 150 253.645 150 212.5C150 171.355 116.645 138 75.5 138C34.3548 138 1 171.355 1 212.5C1 253.645 34.3548 287 75.5 287Z" fill="black" stroke="white" stroke-width="3"/>
</g>
<rect x="73.0981" y="241" width="7" height="8" rx="2" fill="white"/>
<line x1="76.5981" y1="222.5" x2="76.5981" y2="239.5" stroke="white" stroke-width="3" stroke-linecap="round"/>
<path d="M91.0021 212L89.5109 213.245C86.8693 215.452 84.0684 217.46 81.1309 219.255L77.1836 221.666" stroke="white" stroke-width="3" stroke-linecap="round"/>
<path d="M62.3497 212L63.8409 213.245C66.4825 215.452 69.2835 217.46 72.2209 219.255L76.1682 221.666" stroke="white" stroke-width="3" stroke-linecap="round"/>
<path d="M61.9262 248.157L62.3603 247.507C63.1895 246.264 64.2241 245.172 65.4199 244.276V244.276C66.4589 243.497 67.6074 242.877 68.8281 242.433L76.155 239.774" stroke="white" stroke-width="3" stroke-linecap="round"/>
<path d="M91.3373 248.199L90.9853 247.746C89.8947 246.344 88.5849 245.128 87.1062 244.143V244.143C86.0675 243.451 84.9536 242.879 83.7859 242.438L76.7281 239.773" stroke="white" stroke-width="3" stroke-linecap="round"/>
<defs>
<clipPath id="clip0_6_37">
<rect width="151" height="288" fill="white"/>
</clipPath>
</defs>
</svg>
