<svg width="1156" height="291" viewBox="0 0 1156 291" fill="none" xmlns="http://www.w3.org/2000/svg">
<path d="M299 215.592V204.8H330.16V225.852H369.376V204.8H389.212V258H369.376V236.644H330.16V258H310.324V215.592H299ZM397.58 258L416.124 215.592H406.7V204.8H459.52L482.624 258H462.104L456.328 244.7H423.952L418.176 258H397.58ZM428.664 233.908H451.616L443.56 215.592H436.72L428.664 233.908ZM482.617 246.144V234.364L493.941 232.464V204.8H572.905V230.944L549.953 234.82L576.021 258H548.585L526.925 238.696L513.777 240.9V258H493.941V244.244L482.617 246.144ZM513.777 228.968L553.069 222.356V215.592H513.777V228.968ZM579.027 215.592V204.8H644.995L669.239 217.72V258H590.351V215.592H579.027ZM610.263 247.208H649.479V220.76L639.751 215.592H610.263V247.208ZM713.375 258V240.52L733.211 243.408V247.208H771.667V240.52L713.375 231.324V204.8H791.503V223.268L771.667 220.228V215.592H733.211V222.812L791.503 232.008V258H713.375ZM800.624 226.08V204.8H885.668V226.08L865.832 223.344V215.592H853.064V258H833.228V215.592H820.46V223.344L800.624 226.08ZM887.166 215.592V204.8H912.018L932.918 226.916L951.842 204.8H975.174L942.798 242.648V258H922.962V241.66L898.338 215.592H887.166ZM973.648 215.592V204.8H1004.81V247.208H1036.58V240.748L1056.41 238.012V258H984.972V215.592H973.648ZM1059.45 215.592V204.8H1149.81V224.408L1129.97 221.672V215.592H1090.68V226.004H1122.98V236.796H1090.68V247.208H1129.97V241.128L1149.81 238.392V258H1070.85V215.592H1059.45Z" fill="black"/>
<rect x="201.694" y="178" width="64.9371" height="17.8939" rx="8.94695" transform="rotate(90 201.694 178)" fill="black"/>
<path d="M266 248.014C266 269.001 248.987 286.014 228 286.014L212.8 286.014C196.784 286.014 183.8 273.03 183.8 257.014L183.8 232.65L266 232.65L266 248.014Z" fill="black"/>
<mask id="path-4-outside-1_6_36" maskUnits="userSpaceOnUse" x="223.5" y="216" width="25" height="34" fill="black">
<rect fill="white" x="223.5" y="216" width="25" height="34"/>
<path d="M236.553 216C241.494 216 245.5 220.006 245.5 224.947L245.5 235.342C245.5 240.284 241.494 244.289 236.553 244.289C231.612 244.289 227.606 240.284 227.606 235.342L227.606 224.947C227.606 220.006 231.612 216 236.553 216Z"/>
</mask>
<path d="M236.553 216C241.494 216 245.5 220.006 245.5 224.947L245.5 235.342C245.5 240.284 241.494 244.289 236.553 244.289C231.612 244.289 227.606 240.284 227.606 235.342L227.606 224.947C227.606 220.006 231.612 216 236.553 216Z" fill="black"/>
<path d="M236.553 216C242.765 216 247.8 221.035 247.8 227.247L247.8 238.042C247.8 244.254 242.765 249.289 236.553 249.289L236.553 239.289C240.224 239.289 243.2 237.522 243.2 235.342L243.2 224.947C243.2 220.006 240.224 216 236.553 216ZM236.553 249.289C229.403 249.289 223.606 243.493 223.606 236.342L223.606 228.947C223.606 221.797 229.403 216 236.553 216C233.821 216 231.606 220.006 231.606 224.947L231.606 235.342C231.606 237.522 233.821 239.289 236.553 239.289L236.553 249.289ZM227.606 216L245.5 216L227.606 216ZM247.8 238.042C247.8 244.254 242.765 249.289 236.553 249.289C229.403 249.289 223.606 243.493 223.606 236.342L231.606 235.342C231.606 237.522 233.821 239.289 236.553 239.289C240.224 239.289 243.2 237.522 243.2 235.342L247.8 238.042Z" fill="white" mask="url(#path-4-outside-1_6_36)"/>
<mask id="path-6-outside-2_6_36" maskUnits="userSpaceOnUse" x="200.894" y="216" width="25" height="34" fill="black">
<rect fill="white" x="200.894" y="216" width="25" height="34"/>
<path d="M212.947 216C217.888 216 221.894 220.006 221.894 224.947L221.894 235.342C221.894 240.284 217.888 244.289 212.947 244.289C208.006 244.289 204 240.284 204 235.342L204 224.947C204 220.006 208.006 216 212.947 216Z"/>
</mask>
<path d="M212.947 216C217.888 216 221.894 220.006 221.894 224.947L221.894 235.342C221.894 240.284 217.888 244.289 212.947 244.289C208.006 244.289 204 240.284 204 235.342L204 224.947C204 220.006 208.006 216 212.947 216Z" fill="black"/>
<path d="M212.947 216C220.097 216 225.894 221.797 225.894 228.947L225.894 236.342C225.894 243.493 220.097 249.289 212.947 249.289L212.947 239.289C215.679 239.289 217.894 237.522 217.894 235.342L217.894 224.947C217.894 220.006 215.679 216 212.947 216ZM212.947 249.289C206.735 249.289 201.7 244.254 201.7 238.042L201.7 227.247C201.7 221.035 206.735 216 212.947 216C209.276 216 206.3 220.006 206.3 224.947L206.3 235.342C206.3 237.522 209.276 239.289 212.947 239.289L212.947 249.289ZM204 216L221.894 216L204 216ZM225.894 236.342C225.894 243.493 220.097 249.289 212.947 249.289C206.735 249.289 201.7 244.254 201.7 238.042L206.3 235.342C206.3 237.522 209.276 239.289 212.947 239.289C215.679 239.289 217.894 237.522 217.894 235.342L225.894 236.342Z" fill="white" mask="url(#path-6-outside-2_6_36)"/>
<rect width="61.9607" height="20.0537" rx="10.0268" transform="matrix(0.791855 0.610709 -0.503905 0.863759 162.691 230.23)" fill="black"/>
<rect x="266" y="193.036" width="53.813" height="18.2414" rx="9.12069" transform="rotate(90 266 193.036)" fill="black"/>
<g clip-path="url(#clip0_6_36)">
<path d="M104 175C120.016 175 133 135.825 133 87.5C133 39.1751 120.016 0 104 0C87.9837 0 75 39.1751 75 87.5C75 135.825 87.9837 175 104 175Z" fill="black"/>
<path d="M42 175C58.0163 175 71 135.825 71 87.5C71 39.1751 58.0163 0 42 0C25.9837 0 13 39.1751 13 87.5C13 135.825 25.9837 175 42 175Z" fill="black"/>
<path d="M75.5 287C116.645 287 150 253.645 150 212.5C150 171.355 116.645 138 75.5 138C34.3548 138 1 171.355 1 212.5C1 253.645 34.3548 287 75.5 287Z" fill="black" stroke="white" stroke-width="3"/>
</g>
<rect x="73.0981" y="241" width="7" height="8" rx="2" fill="white"/>
<line x1="76.5981" y1="222.5" x2="76.5981" y2="239.5" stroke="white" stroke-width="3" stroke-linecap="round"/>
<path d="M91.0021 212L89.5109 213.245C86.8693 215.452 84.0684 217.46 81.1309 219.255L77.1836 221.666" stroke="white" stroke-width="3" stroke-linecap="round"/>
<path d="M62.3497 212L63.8409 213.245C66.4825 215.452 69.2835 217.46 72.2209 219.255L76.1682 221.666" stroke="white" stroke-width="3" stroke-linecap="round"/>
<path d="M61.9262 248.157L62.3603 247.507C63.1895 246.264 64.2241 245.172 65.4199 244.276V244.276C66.4589 243.497 67.6074 242.877 68.8281 242.433L76.155 239.774" stroke="white" stroke-width="3" stroke-linecap="round"/>
<path d="M91.3373 248.199L90.9853 247.746C89.8947 246.344 88.5849 245.128 87.1062 244.143V244.143C86.0675 243.451 84.9536 242.879 83.7859 242.438L76.7281 239.773" stroke="white" stroke-width="3" stroke-linecap="round"/>
<defs>
<clipPath id="clip0_6_36">
<rect width="151" height="288" fill="white"/>
</clipPath>
</defs>
</svg>
