<svg width="1156" height="291" viewBox="0 0 1156 291" fill="none" xmlns="http://www.w3.org/2000/svg">
<path d="M359.64 198C360.227 198 360.733 198.213 361.16 198.64C361.587 199.067 361.8 199.573 361.8 200.16V251.84C361.8 252.427 361.587 252.933 361.16 253.36C360.733 253.787 360.227 254 359.64 254H343.16C342.573 254 342.067 253.787 341.64 253.36C341.213 252.933 341 252.427 341 251.84V234.8H325V251.84C325 252.427 324.787 252.933 324.36 253.36C323.933 253.787 323.427 254 322.84 254H306.36C305.773 254 305.267 253.813 304.84 253.44C304.413 253.013 304.2 252.48 304.2 251.84V200.16C304.2 199.573 304.413 199.067 304.84 198.64C305.267 198.213 305.773 198 306.36 198H322.84C323.427 198 323.933 198.213 324.36 198.64C324.787 199.067 325 199.573 325 200.16V216.56H341V200.16C341 199.573 341.213 199.067 341.64 198.64C342.067 198.213 342.573 198 343.16 198H359.64ZM389.449 251.28C388.755 253.093 387.555 254 385.849 254H370.729C370.249 254 369.822 253.84 369.449 253.52C369.129 253.147 368.969 252.72 368.969 252.24L369.049 251.76L386.489 200.64C386.702 199.947 387.102 199.333 387.689 198.8C388.275 198.267 389.075 198 390.089 198H412.329C413.342 198 414.142 198.267 414.729 198.8C415.315 199.333 415.715 199.947 415.929 200.64L433.369 251.76L433.449 252.24C433.449 252.72 433.262 253.147 432.889 253.52C432.569 253.84 432.169 254 431.689 254H416.569C414.862 254 413.662 253.093 412.969 251.28L410.969 245.68H391.449L389.449 251.28ZM401.209 213.44L395.529 230.08H406.889L401.209 213.44ZM500.698 251.52C500.804 251.733 500.858 251.973 500.858 252.24C500.858 252.72 500.671 253.147 500.298 253.52C499.978 253.84 499.578 254 499.098 254H480.938C480.191 254 479.498 253.813 478.858 253.44C478.271 253.067 477.844 252.587 477.578 252L470.538 236.16H463.818V251.84C463.818 252.427 463.604 252.933 463.178 253.36C462.751 253.787 462.244 254 461.658 254H444.378C443.791 254 443.284 253.787 442.858 253.36C442.431 252.933 442.218 252.427 442.218 251.84V200.16C442.218 199.573 442.431 199.067 442.858 198.64C443.284 198.213 443.791 198 444.378 198H475.498C480.298 198 484.484 198.773 488.058 200.32C491.684 201.867 494.458 204.107 496.378 207.04C498.298 209.973 499.258 213.413 499.258 217.36C499.258 224.613 496.458 229.867 490.858 233.12L500.698 251.52ZM473.818 221.36C474.991 221.36 475.898 220.987 476.538 220.24C477.178 219.44 477.498 218.453 477.498 217.28C477.498 216.107 477.178 215.093 476.538 214.24C475.951 213.333 475.044 212.88 473.818 212.88H463.818V221.36H473.818ZM536.666 198C545.68 198 552.88 199.947 558.266 203.84C563.706 207.733 566.426 213.76 566.426 221.92V230.08C566.426 238.4 563.733 244.48 558.346 248.32C553.013 252.107 545.786 254 536.666 254H511.146C510.56 254 510.053 253.787 509.626 253.36C509.2 252.933 508.986 252.427 508.986 251.84V200.16C508.986 199.573 509.2 199.067 509.626 198.64C510.053 198.213 510.56 198 511.146 198H536.666ZM537.066 238.4C539.573 238.4 541.546 237.813 542.986 236.64C544.48 235.413 545.226 233.707 545.226 231.52V220.48C545.226 218.293 544.48 216.613 542.986 215.44C541.546 214.213 539.573 213.6 537.066 213.6H529.786V238.4H537.066ZM677.244 218.32C683.11 218.96 687.804 220 691.324 221.44C694.897 222.88 697.484 224.773 699.084 227.12C700.684 229.467 701.484 232.4 701.484 235.92C701.484 239.76 700.23 243.12 697.724 246C695.27 248.827 691.857 251.013 687.484 252.56C683.11 254.053 678.124 254.8 672.524 254.8C666.284 254.8 661.004 254.027 656.684 252.48C652.364 250.933 649.137 248.88 647.004 246.32C644.87 243.707 643.804 240.853 643.804 237.76C643.804 237.227 643.964 236.8 644.284 236.48C644.657 236.16 645.11 236 645.644 236H662.044C663.164 236 664.07 236.347 664.764 237.04C665.67 237.893 666.684 238.48 667.804 238.8C668.924 239.067 670.497 239.2 672.524 239.2C677.59 239.2 680.124 238.427 680.124 236.88C680.124 236.24 679.777 235.707 679.084 235.28C678.444 234.8 677.27 234.4 675.564 234.08C673.91 233.707 671.457 233.333 668.204 232.96C660.897 232.107 655.297 230.293 651.404 227.52C647.51 224.693 645.564 220.72 645.564 215.6C645.564 211.973 646.657 208.773 648.844 206C651.03 203.227 654.124 201.067 658.124 199.52C662.177 197.973 666.87 197.2 672.204 197.2C677.75 197.2 682.604 198.08 686.764 199.84C690.924 201.547 694.097 203.68 696.284 206.24C698.47 208.8 699.564 211.307 699.564 213.76C699.564 214.293 699.377 214.72 699.004 215.04C698.684 215.36 698.23 215.52 697.644 215.52H680.444C679.537 215.52 678.71 215.2 677.964 214.56C677.377 214.027 676.684 213.6 675.884 213.28C675.084 212.96 673.857 212.8 672.204 212.8C668.63 212.8 666.844 213.547 666.844 215.04C666.844 215.84 667.537 216.48 668.924 216.96C670.31 217.387 673.084 217.84 677.244 218.32ZM768.413 198C768.999 198 769.506 198.213 769.933 198.64C770.359 199.067 770.573 199.573 770.573 200.16V213.04C770.573 213.627 770.359 214.133 769.933 214.56C769.506 214.987 768.999 215.2 768.413 215.2H751.213V251.84C751.213 252.427 750.999 252.933 750.573 253.36C750.146 253.787 749.639 254 749.052 254H732.573C731.986 254 731.479 253.787 731.053 253.36C730.626 252.933 730.413 252.427 730.413 251.84V215.2H713.213C712.626 215.2 712.119 214.987 711.693 214.56C711.266 214.133 711.053 213.627 711.053 213.04V200.16C711.053 199.573 711.266 199.067 711.693 198.64C712.119 198.213 712.626 198 713.213 198H768.413ZM838.061 198C838.541 198 838.941 198.187 839.261 198.56C839.635 198.88 839.821 199.253 839.821 199.68C839.821 200 839.741 200.32 839.581 200.64L819.421 234V251.84C819.421 252.427 819.208 252.933 818.781 253.36C818.355 253.787 817.848 254 817.261 254H800.221C799.635 254 799.128 253.787 798.701 253.36C798.275 252.933 798.061 252.427 798.061 251.84V234L777.981 200.64C777.821 200.32 777.741 200.027 777.741 199.76C777.741 199.28 777.901 198.88 778.221 198.56C778.595 198.187 779.021 198 779.501 198H796.381C797.875 198 798.968 198.613 799.661 199.84L808.701 215.68L817.981 200C818.781 198.667 819.901 198 821.341 198H838.061ZM902.83 237.6C903.417 237.6 903.923 237.813 904.35 238.24C904.777 238.667 904.99 239.173 904.99 239.76V251.84C904.99 252.427 904.777 252.933 904.35 253.36C903.923 253.787 903.417 254 902.83 254H856.11C855.523 254 855.017 253.787 854.59 253.36C854.163 252.933 853.95 252.427 853.95 251.84V200.16C853.95 199.573 854.163 199.067 854.59 198.64C855.017 198.213 855.523 198 856.11 198H873.39C873.977 198 874.483 198.213 874.91 198.64C875.337 199.067 875.55 199.573 875.55 200.16V237.6H902.83ZM970.639 238.4C971.225 238.4 971.732 238.613 972.159 239.04C972.585 239.467 972.799 239.973 972.799 240.56V251.84C972.799 252.427 972.585 252.933 972.159 253.36C971.732 253.787 971.225 254 970.639 254H920.079C919.492 254 918.985 253.787 918.559 253.36C918.132 252.933 917.919 252.427 917.919 251.84V200.16C917.919 199.573 918.132 199.067 918.559 198.64C918.985 198.213 919.492 198 920.079 198H969.839C970.425 198 970.932 198.213 971.359 198.64C971.785 199.067 971.999 199.573 971.999 200.16V211.44C971.999 212.027 971.785 212.533 971.359 212.96C970.932 213.387 970.425 213.6 969.839 213.6H938.719V218.64H965.439C966.025 218.64 966.532 218.853 966.959 219.28C967.385 219.707 967.599 220.213 967.599 220.8V231.2C967.599 231.787 967.385 232.293 966.959 232.72C966.532 233.147 966.025 233.36 965.439 233.36H938.719V238.4H970.639Z" fill="black"/>
<rect x="201.694" y="178" width="64.9371" height="17.8939" rx="8.94695" transform="rotate(90 201.694 178)" fill="black"/>
<path d="M266 248.014C266 269.001 248.987 286.014 228 286.014L212.8 286.014C196.784 286.014 183.8 273.03 183.8 257.014L183.8 232.65L266 232.65L266 248.014Z" fill="black"/>
<mask id="path-4-outside-1_6_86" maskUnits="userSpaceOnUse" x="223.5" y="216" width="25" height="34" fill="black">
<rect fill="white" x="223.5" y="216" width="25" height="34"/>
<path d="M236.553 216C241.494 216 245.5 220.006 245.5 224.947L245.5 235.342C245.5 240.284 241.494 244.289 236.553 244.289C231.612 244.289 227.606 240.284 227.606 235.342L227.606 224.947C227.606 220.006 231.612 216 236.553 216Z"/>
</mask>
<path d="M236.553 216C241.494 216 245.5 220.006 245.5 224.947L245.5 235.342C245.5 240.284 241.494 244.289 236.553 244.289C231.612 244.289 227.606 240.284 227.606 235.342L227.606 224.947C227.606 220.006 231.612 216 236.553 216Z" fill="black"/>
<path d="M236.553 216C242.765 216 247.8 221.035 247.8 227.247L247.8 238.042C247.8 244.254 242.765 249.289 236.553 249.289L236.553 239.289C240.224 239.289 243.2 237.522 243.2 235.342L243.2 224.947C243.2 220.006 240.224 216 236.553 216ZM236.553 249.289C229.403 249.289 223.606 243.493 223.606 236.342L223.606 228.947C223.606 221.797 229.403 216 236.553 216C233.821 216 231.606 220.006 231.606 224.947L231.606 235.342C231.606 237.522 233.821 239.289 236.553 239.289L236.553 249.289ZM227.606 216L245.5 216L227.606 216ZM247.8 238.042C247.8 244.254 242.765 249.289 236.553 249.289C229.403 249.289 223.606 243.493 223.606 236.342L231.606 235.342C231.606 237.522 233.821 239.289 236.553 239.289C240.224 239.289 243.2 237.522 243.2 235.342L247.8 238.042Z" fill="white" mask="url(#path-4-outside-1_6_86)"/>
<mask id="path-6-outside-2_6_86" maskUnits="userSpaceOnUse" x="200.894" y="216" width="25" height="34" fill="black">
<rect fill="white" x="200.894" y="216" width="25" height="34"/>
<path d="M212.947 216C217.888 216 221.894 220.006 221.894 224.947L221.894 235.342C221.894 240.284 217.888 244.289 212.947 244.289C208.006 244.289 204 240.284 204 235.342L204 224.947C204 220.006 208.006 216 212.947 216Z"/>
</mask>
<path d="M212.947 216C217.888 216 221.894 220.006 221.894 224.947L221.894 235.342C221.894 240.284 217.888 244.289 212.947 244.289C208.006 244.289 204 240.284 204 235.342L204 224.947C204 220.006 208.006 216 212.947 216Z" fill="black"/>
<path d="M212.947 216C220.097 216 225.894 221.797 225.894 228.947L225.894 236.342C225.894 243.493 220.097 249.289 212.947 249.289L212.947 239.289C215.679 239.289 217.894 237.522 217.894 235.342L217.894 224.947C217.894 220.006 215.679 216 212.947 216ZM212.947 249.289C206.735 249.289 201.7 244.254 201.7 238.042L201.7 227.247C201.7 221.035 206.735 216 212.947 216C209.276 216 206.3 220.006 206.3 224.947L206.3 235.342C206.3 237.522 209.276 239.289 212.947 239.289L212.947 249.289ZM204 216L221.894 216L204 216ZM225.894 236.342C225.894 243.493 220.097 249.289 212.947 249.289C206.735 249.289 201.7 244.254 201.7 238.042L206.3 235.342C206.3 237.522 209.276 239.289 212.947 239.289C215.679 239.289 217.894 237.522 217.894 235.342L225.894 236.342Z" fill="white" mask="url(#path-6-outside-2_6_86)"/>
<rect width="61.9607" height="20.0537" rx="10.0268" transform="matrix(0.791855 0.610709 -0.503905 0.863759 162.691 230.23)" fill="black"/>
<rect x="266" y="193.036" width="53.813" height="18.2414" rx="9.12069" transform="rotate(90 266 193.036)" fill="black"/>
<g clip-path="url(#clip0_6_86)">
<path d="M104 175C120.016 175 133 135.825 133 87.5C133 39.1751 120.016 0 104 0C87.9837 0 75 39.1751 75 87.5C75 135.825 87.9837 175 104 175Z" fill="black"/>
<path d="M42 175C58.0163 175 71 135.825 71 87.5C71 39.1751 58.0163 0 42 0C25.9837 0 13 39.1751 13 87.5C13 135.825 25.9837 175 42 175Z" fill="black"/>
<path d="M75.5 287C116.645 287 150 253.645 150 212.5C150 171.355 116.645 138 75.5 138C34.3548 138 1 171.355 1 212.5C1 253.645 34.3548 287 75.5 287Z" fill="black" stroke="white" stroke-width="3"/>
</g>
<rect x="73.0981" y="241" width="7" height="8" rx="2" fill="white"/>
<line x1="76.5981" y1="222.5" x2="76.5981" y2="239.5" stroke="white" stroke-width="3" stroke-linecap="round"/>
<path d="M91.0021 212L89.5109 213.245C86.8693 215.452 84.0684 217.46 81.1309 219.255L77.1836 221.666" stroke="white" stroke-width="3" stroke-linecap="round"/>
<path d="M62.3497 212L63.8409 213.245C66.4825 215.452 69.2835 217.46 72.2209 219.255L76.1682 221.666" stroke="white" stroke-width="3" stroke-linecap="round"/>
<path d="M61.9262 248.157L62.3603 247.507C63.1895 246.264 64.2241 245.172 65.4199 244.276V244.276C66.4589 243.497 67.6074 242.877 68.8281 242.433L76.155 239.774" stroke="white" stroke-width="3" stroke-linecap="round"/>
<path d="M91.3373 248.199L90.9853 247.746C89.8947 246.344 88.5849 245.128 87.1062 244.143V244.143C86.0675 243.451 84.9536 242.879 83.7859 242.438L76.7281 239.773" stroke="white" stroke-width="3" stroke-linecap="round"/>
<defs>
<clipPath id="clip0_6_86">
<rect width="151" height="288" fill="white"/>
</clipPath>
</defs>
</svg>
